# xmcd
#
# Track frame offsets:
#	150
#	30493
#	72966
#	111509
#	130392
#	150607
#	164179
#	181588
#	183212
#
# Disc length: 2936 seconds
#
# Revision: 1
# Processed by: cddbd v1.5.2PL0 Copyright (c) Steve Scherf et al.
# Submitted via: audiograbber 1.83.01
#
DISCID=770b7609
DTITLE=gg. gibson and koko harp - live au mas d'andenas
DYEAR=1900
DGENRE=Blues
TTITLE0=crazy mama
TTITLE1=play with fire
TTITLE2=molina
TTITLE3=the letter
TTITLE4=crossroad
TTITLE5=folie irlandaise
TTITLE6=bourrée
TTITLE7=faut rentrer les poules
TTITLE8=cocaïne
EXTD=
EXTT0=
EXTT1=
EXTT2=
EXTT3=
EXTT4=
EXTT5=
EXTT6=
EXTT7=
EXTT8=
PLAYORDER=
